<svg xmlns="http://www.w3.org/2000/svg" width="128" height="180" viewBox="0 0 128 180">
  <ellipse cx="64" cy="156" rx="43" ry="13" fill="#08070a" opacity="0.55"/>
  <path d="M39 32 51 18h32l11 14-7 115-23 10-26-10z" fill="#4b4a50"/>
  <path d="M48 34h33l-5 106-15 8-17-8z" fill="#64626b"/>
  <path d="M37 33h58l8 14H29z" fill="#38363d"/>
  <path d="M48 18h34l12 14H37z" fill="#7a7677"/>
  <path d="M43 74 64 61l-6 24 22 17-27 2-12 24-5-31z" fill="#2d2b31" opacity="0.62"/>
  <path d="M83 20 72 34l22 4zM40 31l17 6-8-17zM84 101l-24 10 20 14z" fill="#2b2930"/>
  <path d="M55 43c-5 34-3 68-9 95" stroke="#a7a09a" stroke-width="3" opacity="0.25"/>
  <path d="M78 42c-1 33-8 67-7 97" stroke="#1b1920" stroke-width="4" opacity="0.45"/>
</svg>
