<svg xmlns="http://www.w3.org/2000/svg" width="110" height="130" viewBox="0 0 110 130">
  <ellipse cx="55" cy="116" rx="31" ry="8" fill="#07060a" opacity="0.55"/>
  <path d="M37 61h36l-8 53H45z" fill="#363238"/>
  <path d="M32 51h46l-6 19H38z" fill="#61544a"/>
  <path d="M39 48h33l8 8H31z" fill="#2b272b"/>
  <path d="M55 10c17 17 12 31 2 42 6-17-7-21-2-42z" fill="#e2a24d"/>
  <path d="M43 22c18 8 18 22 9 32 2-13-13-15-9-32z" fill="#b94f2d"/>
  <path d="M63 25c13 9 13 21 4 30 2-12-9-14-4-30z" fill="#ffd283"/>
  <path d="M45 76h20" stroke="#9a8b78" stroke-width="4" opacity="0.35"/>
</svg>
